<?xml version="1.0" encoding="UTF-8"?>
<svg version="1.1" xmlns="http://www.w3.org/2000/svg" width="137" height="131">
<path d="M0 0 C1.03154205 0.00624893 2.06308411 0.01249786 3.12588501 0.01893616 C6.52517499 0.04235873 9.92410216 0.0807551 13.32324219 0.12011719 C15.68641632 0.14121755 18.04959608 0.16169636 20.41278076 0.18157959 C25.35893765 0.22555229 30.30494833 0.27691292 35.25097656 0.33349609 C41.60213633 0.40557799 47.95329736 0.45948924 54.30467606 0.50795364 C59.18076628 0.54710368 64.05672697 0.59568618 68.93270111 0.64717865 C71.27553321 0.67079565 73.61839679 0.6914735 75.96128082 0.70920563 C79.22698065 0.7353594 82.49228684 0.77414794 85.7578125 0.81640625 C87.21965469 0.82435966 87.21965469 0.82435966 88.71102905 0.83247375 C89.59700775 0.84652756 90.48298645 0.86058136 91.39581299 0.87506104 C92.16785694 0.88318943 92.93990089 0.89131783 93.73534012 0.89969254 C95.62011719 1.16699219 95.62011719 1.16699219 97.62011719 3.16699219 C97.83256913 6.21704665 97.92406948 9.17393846 97.92089844 12.22558594 C97.92518356 13.12567886 97.92946869 14.02577179 97.93388367 14.95314026 C97.93963249 16.85880695 97.94012318 18.76449558 97.93579102 20.67016602 C97.9326335 23.58941029 97.95607452 26.50763913 97.98144531 29.42675781 C97.98371846 31.27636591 97.98442173 33.12597673 97.98339844 34.97558594 C97.99260818 35.85065292 98.00181793 36.72571991 98.01130676 37.62730408 C98.00507797 38.44147293 97.99884918 39.25564178 97.99243164 40.09448242 C97.99306107 40.81014877 97.99369049 41.52581512 97.99433899 42.26316833 C97.49679455 44.79438635 96.62590851 45.56929089 94.62011719 47.16699219 C92.51020813 47.54451561 92.51020813 47.54451561 90.02758789 47.54794312 C89.08541412 47.55640259 88.14324036 47.56486206 87.17251587 47.57357788 C86.14073212 47.56750519 85.10894836 47.5614325 84.04589844 47.55517578 C82.41386978 47.56306122 82.41386978 47.56306122 80.74887085 47.57110596 C77.14330802 47.58433709 73.53818471 47.57555656 69.93261719 47.56542969 C67.43302322 47.56744952 64.93342983 47.57036019 62.43383789 47.5741272 C57.19152317 47.57855478 51.94932331 47.57239047 46.70703125 47.55810547 C40.6453997 47.5417786 34.58407085 47.54706705 28.52244663 47.56358469 C22.69236855 47.57883578 16.86240558 47.5772257 11.03231812 47.56843948 C8.55072996 47.5664342 6.06913411 47.56890819 3.58755493 47.57587814 C0.12293859 47.58347292 -3.34109153 47.57191548 -6.80566406 47.55517578 C-8.35333969 47.56428482 -8.35333969 47.56428482 -9.93228149 47.57357788 C-10.87445526 47.56511841 -11.81662903 47.55665894 -12.78735352 47.54794312 C-14.01625053 47.5462465 -14.01625053 47.5462465 -15.26997375 47.54451561 C-17.93078828 47.06841935 -18.80914644 46.34667489 -20.37988281 44.16699219 C-20.69045155 41.19003602 -20.82403401 38.42663724 -20.81347656 35.44824219 C-20.81871841 34.5939563 -20.82396027 33.73967041 -20.82936096 32.85949707 C-20.83578219 31.05396613 -20.83444283 29.24839337 -20.82592773 27.44287109 C-20.81741355 24.67697901 -20.8461826 21.9131491 -20.87792969 19.14746094 C-20.87954166 17.39355531 -20.87896424 15.63964601 -20.87597656 13.88574219 C-20.88721054 13.05755981 -20.89844452 12.22937744 -20.91001892 11.37609863 C-20.84096637 5.70155818 -20.84096637 5.70155818 -18.72387695 3.24707031 C-12.29930673 0.28672257 -6.96970774 -0.09662901 0 0 Z M-15.37988281 5.16699219 C-15.37988281 17.37699219 -15.37988281 29.58699219 -15.37988281 42.16699219 C20.26011719 42.16699219 55.90011719 42.16699219 92.62011719 42.16699219 C92.62011719 30.28699219 92.62011719 18.40699219 92.62011719 6.16699219 C69.66185102 5.2890338 46.76931465 5.03815158 23.79724121 5.09832764 C18.56859858 5.11065531 13.33994315 5.11499847 8.11128998 5.12078094 C0.28087376 5.13028427 -7.5494622 5.1495179 -15.37988281 5.16699219 Z " fill="#E0842F" transform="translate(32.3798828125,41.8330078125)"/>
<path d="M0 0 C7.64070742 -0.09265347 15.28135665 -0.16374109 22.92249775 -0.20724869 C26.47058762 -0.22812977 30.01829335 -0.25645545 33.56616211 -0.30175781 C37.64440613 -0.35350697 41.72224626 -0.37294074 45.80078125 -0.390625 C47.07585037 -0.41127014 48.35091949 -0.43191528 49.66462708 -0.45318604 C50.84562485 -0.45348816 52.02662262 -0.45379028 53.2434082 -0.45410156 C54.28487503 -0.46298401 55.32634186 -0.47186646 56.39936829 -0.48101807 C59 0 59 0 60.83708191 1.87164307 C62.25289562 4.46284613 62.36952495 6.18602185 62.3125 9.125 C62.30863281 9.99382813 62.30476563 10.86265625 62.30078125 11.7578125 C62 14 62 14 60 16 C57.47802734 16.22705078 57.47802734 16.22705078 54.3359375 16.1953125 C53.21445313 16.18886719 52.09296875 16.18242188 50.9375 16.17578125 C49.761875 16.15902344 48.58625 16.14226562 47.375 16.125 C46.19164062 16.11597656 45.00828125 16.10695313 43.7890625 16.09765625 C40.85917477 16.07402812 37.9296866 16.04108514 35 16 C35.495 17.485 35.495 17.485 36 19 C40.95 19.33 45.9 19.66 51 20 C51 22.31 51 24.62 51 27 C48.43721301 27.05420701 45.87558517 27.09377007 43.3125 27.125 C42.59126953 27.14175781 41.87003906 27.15851563 41.12695312 27.17578125 C36.98090672 27.21364469 33.59536539 27.16369737 30 25 C26.70421965 21.03219502 26.67114109 17.72930128 26.8125 12.6875 C26.83957031 11.43324219 26.86664063 10.17898437 26.89453125 8.88671875 C26.92933594 7.93410156 26.96414062 6.98148438 27 6 C25.02 6 23.04 6 21 6 C21 12.93 21 19.86 21 27 C19.02 27 17.04 27 15 27 C15 20.07 15 13.14 15 6 C11.5659375 6.0309375 11.5659375 6.0309375 8.0625 6.0625 C5.70833668 6.08370868 3.35313555 6.07271741 1 6 C0 5 0 5 -0.0625 2.4375 C-0.041875 1.633125 -0.02125 0.82875 0 0 Z M36 6 C35.67 7.65 35.34 9.3 35 11 C41.27 11 47.54 11 54 11 C54 9.35 54 7.7 54 6 C48.06 6 42.12 6 36 6 Z " fill="#E47A55" transform="translate(57,53)"/>
<path d="M0 0 C1.03460861 0.00946152 2.06921722 0.01892303 3.13517761 0.02867126 C6.54952834 0.06230653 9.96351277 0.11043412 13.37768555 0.15869141 C15.74707588 0.18486287 18.11647636 0.21012953 20.48588562 0.23452759 C26.71832133 0.30113583 32.95054321 0.3800383 39.18280029 0.46148682 C45.54390259 0.54244833 51.90513022 0.6118027 58.26635742 0.68212891 C70.74502328 0.82179959 83.22349405 0.97445641 95.7019043 1.13525391 C96.6237889 3.90090773 96.81975652 5.51809092 96.79956055 8.36572266 C96.79472656 9.56938477 96.79472656 9.56938477 96.78979492 10.79736328 C96.77722656 12.04743164 96.77722656 12.04743164 96.7644043 13.32275391 C96.75989258 14.16773438 96.75538086 15.01271484 96.75073242 15.88330078 C96.73895833 17.96731545 96.7210232 20.05129367 96.7019043 22.13525391 C95.7119043 22.13525391 94.7219043 22.13525391 93.7019043 22.13525391 C93.7019043 16.85525391 93.7019043 11.57525391 93.7019043 6.13525391 C92.46908218 6.13747452 91.23626007 6.13969513 89.96607971 6.14198303 C78.32841352 6.16228495 66.69075093 6.17725999 55.05307102 6.18706608 C49.0705294 6.192277 43.08800212 6.19934208 37.10546875 6.21069336 C31.32831113 6.22158593 25.55116727 6.22754423 19.77400017 6.23013115 C17.57368694 6.23197393 15.37337444 6.23557237 13.17306709 6.24098396 C10.08313514 6.24827896 6.99325953 6.24924129 3.90332031 6.2487793 C3.00060394 6.25237457 2.09788757 6.25596985 1.16781616 6.25967407 C-4.39693277 6.25071439 -9.77691208 5.83984407 -15.2980957 5.13525391 C-15.2980957 7.44525391 -15.2980957 9.75525391 -15.2980957 12.13525391 C-15.6280957 12.13525391 -15.9580957 12.13525391 -16.2980957 12.13525391 C-16.4230957 4.38525391 -16.4230957 4.38525391 -15.2980957 2.13525391 C-10.51871364 -0.64576079 -5.34500292 -0.09084779 0 0 Z " fill="#F16350" transform="translate(32.298095703125,41.86474609375)"/>
<path d="M0 0 C0.80179688 0.00451172 1.60359375 0.00902344 2.4296875 0.01367188 C4.41149006 0.02546832 6.39325433 0.04340395 8.375 0.0625 C8.417721 1.72861905 8.41563832 3.39632885 8.375 5.0625 C6.49675109 6.94074891 3.33564724 6.45352397 0.8125 6.625 C-0.38503906 6.70878906 -1.58257812 6.79257812 -2.81640625 6.87890625 C-3.74324219 6.93949219 -4.67007813 7.00007813 -5.625 7.0625 C-5.65186553 9.04159398 -5.67133375 11.02078971 -5.6875 13 C-5.69910156 14.10214844 -5.71070313 15.20429687 -5.72265625 16.33984375 C-5.93762571 18.97697634 -5.93762571 18.97697634 -4.625 20.0625 C-2.13441086 20.16247642 0.32227395 20.20129627 2.8125 20.1875 C3.85374023 20.19330078 3.85374023 20.19330078 4.91601562 20.19921875 C8.77269757 20.25609835 8.77269757 20.25609835 12.375 19.0625 C12.84251788 16.70650765 12.84251788 16.70650765 13 14 C13.07476562 13.08089844 13.14953125 12.16179687 13.2265625 11.21484375 C13.27554688 10.50457031 13.32453125 9.79429688 13.375 9.0625 C15.685 9.0625 17.995 9.0625 20.375 9.0625 C20.59081577 14.45789427 20.59006442 19.01707548 18.375 24.0625 C14.35038798 28.08711202 8.79686293 27.24569529 3.4375 27.25 C2.63892578 27.26224609 1.84035156 27.27449219 1.01757812 27.28710938 C-6.96513042 27.30695041 -6.96513042 27.30695041 -10.625 25.0625 C-13.78841589 21.19456791 -14.03172719 17.96963908 -14 13.0625 C-14.00773437 11.86625 -14.01546875 10.67 -14.0234375 9.4375 C-13.59805241 5.83423805 -12.79272384 3.93869943 -10.625 1.0625 C-7.31505287 -0.59247356 -3.63377 -0.03834335 0 0 Z " fill="#D57A44" transform="translate(46.625,52.9375)"/>
<path d="M0 0 C0.99 0.495 0.99 0.495 2 1 C2.04934656 6.80239614 2.08569402 12.60467081 2.10986328 18.40722656 C2.11993627 20.38218309 2.13359521 22.35712466 2.15087891 24.33203125 C2.17507039 27.16670418 2.18646991 30.00118038 2.1953125 32.8359375 C2.20563507 33.72243988 2.21595764 34.60894226 2.22659302 35.52230835 C2.2269907 37.68285952 2.12272534 39.84293718 2 42 C0 44 0 44 -2.625 44.125 C-3.40875 44.08375 -4.1925 44.0425 -5 44 C-3.68 43.67 -2.36 43.34 -1 43 C-1 42.34 -1 41.68 -1 41 C-36.97 41 -72.94 41 -110 41 C-110 40.67 -110 40.34 -110 40 C-74.69 40 -39.38 40 -3 40 C-3 28.12 -3 16.24 -3 4 C-2.67 4 -2.34 4 -2 4 C-2 9.28 -2 14.56 -2 20 C-1.01 20 -0.02 20 1 20 C0.67 13.4 0.34 6.8 0 0 Z " fill="#E08B4E" transform="translate(128,44)"/>
<path d="M0 0 C0.79075928 0.00523682 1.58151855 0.01047363 2.39624023 0.01586914 C3.67724609 0.02070312 3.67724609 0.02070312 4.98413086 0.02563477 C5.88196289 0.03401367 6.77979492 0.04239258 7.70483398 0.05102539 C8.6065332 0.05553711 9.50823242 0.06004883 10.43725586 0.06469727 C12.67234712 0.07652315 14.90730835 0.09300319 17.14233398 0.11352539 C17.14233398 0.77352539 17.14233398 1.43352539 17.14233398 2.11352539 C8.72733398 2.60852539 8.72733398 2.60852539 0.14233398 3.11352539 C-0.18766602 5.09352539 -0.51766602 7.07352539 -0.85766602 9.11352539 C5.74233398 9.44352539 12.34233398 9.77352539 19.14233398 10.11352539 C19.47233398 9.12352539 19.80233398 8.13352539 20.14233398 7.11352539 C21.46233398 7.11352539 22.78233398 7.11352539 24.14233398 7.11352539 C24.14233398 8.76352539 24.14233398 10.41352539 24.14233398 12.11352539 C15.89233398 12.11352539 7.64233398 12.11352539 -0.85766602 12.11352539 C-0.85766602 12.77352539 -0.85766602 13.43352539 -0.85766602 14.11352539 C-1.84766602 14.11352539 -2.83766602 14.11352539 -3.85766602 14.11352539 C-4.18766602 15.43352539 -4.51766602 16.75352539 -4.85766602 18.11352539 C-5.84766602 17.78352539 -6.83766602 17.45352539 -7.85766602 17.11352539 C-7.85766602 12.16352539 -7.85766602 7.21352539 -7.85766602 2.11352539 C-6.20766602 1.78352539 -4.55766602 1.45352539 -2.85766602 1.11352539 C-1.85766602 0.11352539 -1.85766602 0.11352539 0 0 Z " fill="#F77739" transform="translate(92.857666015625,54.886474609375)"/>
<path d="M0 0 C2.31 0 4.62 0 7 0 C7.21755666 5.4389165 7.10428384 9.87080814 5 15 C4.236875 15.144375 3.47375 15.28875 2.6875 15.4375 C-0.08172908 15.9632594 -0.08172908 15.9632594 -3 17 C-5.57265818 17.07029121 -8.11641431 17.09370832 -10.6875 17.0625 C-11.38939453 17.05798828 -12.09128906 17.05347656 -12.81445312 17.04882812 C-14.54300538 17.03706927 -16.27151365 17.01913454 -18 17 C-18 16.34 -18 15.68 -18 15 C-19.65 15 -21.3 15 -23 15 C-23 14.01 -23 13.02 -23 12 C-15.41 12.33 -7.82 12.66 0 13 C0 8.71 0 4.42 0 0 Z " fill="#F28030" transform="translate(60,62)"/>
<path d="M0 0 C0.99 0 1.98 0 3 0 C3.33 0.99 3.66 1.98 4 3 C8.95 3.33 13.9 3.66 19 4 C19 6.31 19 8.62 19 11 C16.43721301 11.05420701 13.87558517 11.09377007 11.3125 11.125 C10.59126953 11.14175781 9.87003906 11.15851563 9.12695312 11.17578125 C4.99167713 11.21354633 1.63670741 11.07012576 -2 9 C-2.8125 6.375 -2.8125 6.375 -3 4 C-2.34 3.67 -1.68 3.34 -1 3 C-0.67 2.01 -0.34 1.02 0 0 Z " fill="#E48845" transform="translate(89,69)"/>
<path d="M0 0 C3.62493334 -0.05787784 7.24974857 -0.0935542 10.875 -0.125 C11.90753906 -0.14175781 12.94007812 -0.15851562 14.00390625 -0.17578125 C14.99003906 -0.18222656 15.97617188 -0.18867187 16.9921875 -0.1953125 C18.35899658 -0.21102295 18.35899658 -0.21102295 19.75341797 -0.22705078 C22 0 22 0 24 2 C23.360625 2.12375 22.72125 2.2475 22.0625 2.375 C21.381875 2.58125 20.70125 2.7875 20 3 C18.85345518 5.29308963 18.80270883 6.79909656 18.68359375 9.3515625 C18.64169922 10.20234375 18.59980469 11.053125 18.55664062 11.9296875 C18.51732422 12.81914063 18.47800781 13.70859375 18.4375 14.625 C18.39431641 15.5221875 18.35113281 16.419375 18.30664062 17.34375 C18.20043139 19.56234283 18.09838806 21.7810488 18 24 C16.68 24 15.36 24 14 24 C13.67 17.07 13.34 10.14 13 3 C8.71 2.67 4.42 2.34 0 2 C0 1.34 0 0.68 0 0 Z " fill="#F6783A" transform="translate(59,55)"/>
<path d="M0 0 C1.03460861 0.00946152 2.06921722 0.01892303 3.13517761 0.02867126 C6.54952834 0.06230653 9.96351277 0.11043412 13.37768555 0.15869141 C15.74707588 0.18486287 18.11647636 0.21012953 20.48588562 0.23452759 C26.71832133 0.30113583 32.95054321 0.3800383 39.18280029 0.46148682 C45.54390259 0.54244833 51.90513022 0.6118027 58.26635742 0.68212891 C70.74502328 0.82179959 83.22349405 0.97445641 95.7019043 1.13525391 C95.7019043 1.46525391 95.7019043 1.79525391 95.7019043 2.13525391 C60.7219043 2.13525391 25.7419043 2.13525391 -10.2980957 2.13525391 C-10.2980957 2.79525391 -10.2980957 3.45525391 -10.2980957 4.13525391 C-8.6480957 4.13525391 -6.9980957 4.13525391 -5.2980957 4.13525391 C-5.2980957 4.46525391 -5.2980957 4.79525391 -5.2980957 5.13525391 C-8.5980957 5.13525391 -11.8980957 5.13525391 -15.2980957 5.13525391 C-15.2980957 7.44525391 -15.2980957 9.75525391 -15.2980957 12.13525391 C-15.6280957 12.13525391 -15.9580957 12.13525391 -16.2980957 12.13525391 C-16.4230957 4.38525391 -16.4230957 4.38525391 -15.2980957 2.13525391 C-10.51871364 -0.64576079 -5.34500292 -0.09084779 0 0 Z " fill="#C96657" transform="translate(32.298095703125,41.86474609375)"/>
<path d="M0 0 C1.65 0 3.3 0 5 0 C5 6.6 5 13.2 5 20 C3.35 20 1.7 20 0 20 C-1.5220959 18.4779041 -1.12959521 17.11789918 -1.1328125 15 C-1.13410156 14.195625 -1.13539062 13.39125 -1.13671875 12.5625 C-1.13285156 11.716875 -1.12898438 10.87125 -1.125 10 C-1.12886719 9.154375 -1.13273437 8.30875 -1.13671875 7.4375 C-1.13542969 6.633125 -1.13414063 5.82875 -1.1328125 5 C-1.13168457 4.2575 -1.13055664 3.515 -1.12939453 2.75 C-1 1 -1 1 0 0 Z " fill="#E6854C" transform="translate(24,60)"/>
<path d="M0 0 C0.99 0.66 1.98 1.32 3 2 C2.01 2 1.02 2 0 2 C0.16371094 3.0003125 0.32742187 4.000625 0.49609375 5.03125 C1.34455082 11.81890654 1.10499253 18.67233208 1.0625 25.5 C1.05747533 26.90885258 1.05291413 28.31770689 1.04882812 29.7265625 C1.0371003 33.15108638 1.02068691 36.57552047 1 40 C0.67 40 0.34 40 0 40 C-0.33 32.08 -0.66 24.16 -1 16 C-1.33 16 -1.66 16 -2 16 C-2.33 24.58 -2.66 33.16 -3 42 C-3.33 42 -3.66 42 -4 42 C-4.09881786 36.50078594 -4.17144379 31.00208765 -4.21972656 25.50219727 C-4.23985207 23.63101196 -4.26715549 21.75988961 -4.30175781 19.88891602 C-4.35023581 17.20052568 -4.37295872 14.51296612 -4.390625 11.82421875 C-4.41127014 10.98662521 -4.43191528 10.14903168 -4.45318604 9.28605652 C-4.45544041 3.46153712 -4.45544041 3.46153712 -1.97558594 0.94848633 C-1.32364258 0.63548584 -0.67169922 0.32248535 0 0 Z " fill="#E68158" transform="translate(16,44)"/>
<path d="M0 0 C3.0390625 -0.29296875 3.0390625 -0.29296875 6.625 -0.1875 C7.81351563 -0.16042969 9.00203125 -0.13335937 10.2265625 -0.10546875 C11.14179687 -0.07066406 12.05703125 -0.03585938 13 0 C13 0.99 13 1.98 13 3 C9.7 3.33 6.4 3.66 3 4 C2.97421875 4.81984375 2.9484375 5.6396875 2.921875 6.484375 C2.86515625 7.56203125 2.8084375 8.6396875 2.75 9.75 C2.70359375 10.81734375 2.6571875 11.8846875 2.609375 12.984375 C1.89410286 16.52405508 0.74415095 17.73881962 -2 20 C-2.05392397 17.22890693 -2.09363455 14.45886182 -2.125 11.6875 C-2.14175781 10.90181641 -2.15851562 10.11613281 -2.17578125 9.30664062 C-2.18544922 8.1706543 -2.18544922 8.1706543 -2.1953125 7.01171875 C-2.20578613 6.31522217 -2.21625977 5.61872559 -2.22705078 4.90112305 C-2 3 -2 3 0 0 Z " fill="#F5773B" transform="translate(37,55)"/>
<path d="M0 0 C14.52 0 29.04 0 44 0 C44 0.33 44 0.66 44 1 C31.79 1.33 19.58 1.66 7 2 C28.78 2.495 28.78 2.495 51 3 C51 3.33 51 3.66 51 4 C44.37975331 4.05069859 37.75955666 4.08573295 31.13916016 4.10986328 C28.88686248 4.11992253 26.63457786 4.13357146 24.38232422 4.15087891 C21.14547502 4.17513031 17.90879845 4.1864839 14.671875 4.1953125 C13.66445251 4.20563507 12.65703003 4.21595764 11.61907959 4.22659302 C10.20806976 4.22681961 10.20806976 4.22681961 8.76855469 4.22705078 C7.94248718 4.231492 7.11641968 4.23593323 6.26531982 4.24050903 C3.77802236 3.97643263 2.15066625 3.24570507 0 2 C0 1.34 0 0.68 0 0 Z " fill="#F47363" transform="translate(22,44)"/>
<path d="M0 0 C0.66 0.33 1.32 0.66 2 1 C2 8.92 2 16.84 2 25 C3.32 25.33 4.64 25.66 6 26 C6 26.99 6 27.98 6 29 C1.25 28.125 1.25 28.125 -1 27 C-1.02886537 22.68751391 -1.04675255 18.37505238 -1.0625 14.0625 C-1.07087891 12.83080078 -1.07925781 11.59910156 -1.08789062 10.33007812 C-1.09111328 9.16025391 -1.09433594 7.99042969 -1.09765625 6.78515625 C-1.10289307 5.70113525 -1.10812988 4.61711426 -1.11352539 3.50024414 C-1 1 -1 1 0 0 Z " fill="#EF862C" transform="translate(14,59)"/>
<path d="M0 0 C2 2 2 2 2.265625 4.3125 C2.26046875 5.199375 2.2553125 6.08625 2.25 7 C2.25515625 7.886875 2.2603125 8.77375 2.265625 9.6875 C2 12 2 12 0 14 C-2.52197266 14.22705078 -2.52197266 14.22705078 -5.6640625 14.1953125 C-6.78554687 14.18886719 -7.90703125 14.18242188 -9.0625 14.17578125 C-10.238125 14.15902344 -11.41375 14.14226562 -12.625 14.125 C-14.40003906 14.11146484 -14.40003906 14.11146484 -16.2109375 14.09765625 C-19.14082523 14.07402812 -22.0703134 14.04108514 -25 14 C-25 13.34 -25 12.68 -25 12 C-16.75 12 -8.5 12 0 12 C-0.495 7.05 -0.495 7.05 -1 2 C-0.67 1.34 -0.34 0.68 0 0 Z " fill="#D98050" transform="translate(117,55)"/>
<path d="M0 0 C2.31 0 4.62 0 7 0 C7.05447047 1.41623216 7.09300508 2.83308191 7.125 4.25 C7.14820312 5.03890625 7.17140625 5.8278125 7.1953125 6.640625 C6.9828378 9.20731941 6.28654105 10.7916067 5 13 C5 11.68 5 10.36 5 9 C3.35 9.33 1.7 9.66 0 10 C0 6.7 0 3.4 0 0 Z " fill="#E07E4A" transform="translate(60,62)"/>
<path d="M0 0 C0.79075928 0.00523682 1.58151855 0.01047363 2.39624023 0.01586914 C3.67724609 0.02070312 3.67724609 0.02070312 4.98413086 0.02563477 C5.88196289 0.03401367 6.77979492 0.04239258 7.70483398 0.05102539 C8.6065332 0.05553711 9.50823242 0.06004883 10.43725586 0.06469727 C12.67234712 0.07652315 14.90730835 0.09300319 17.14233398 0.11352539 C17.14233398 0.77352539 17.14233398 1.43352539 17.14233398 2.11352539 C7.73733398 2.60852539 7.73733398 2.60852539 -1.85766602 3.11352539 C-2.18766602 5.09352539 -2.51766602 7.07352539 -2.85766602 9.11352539 C-3.84766602 9.11352539 -4.83766602 9.11352539 -5.85766602 9.11352539 C-6.00204102 8.51540039 -6.14641602 7.91727539 -6.29516602 7.30102539 C-6.74490991 5.55202135 -7.28658943 3.82675516 -7.85766602 2.11352539 C-6.65110352 1.89696289 -6.65110352 1.89696289 -5.42016602 1.67602539 C-3.00702571 1.14631166 -2.30595434 0.14092112 0 0 Z " fill="#FB6F41" transform="translate(92.857666015625,54.886474609375)"/>
<path d="M0 0 C3.62493334 -0.05787784 7.24974857 -0.0935542 10.875 -0.125 C11.90753906 -0.14175781 12.94007812 -0.15851562 14.00390625 -0.17578125 C14.99003906 -0.18222656 15.97617188 -0.18867187 16.9921875 -0.1953125 C18.35899658 -0.21102295 18.35899658 -0.21102295 19.75341797 -0.22705078 C22 0 22 0 24 2 C23.360625 2.12375 22.72125 2.2475 22.0625 2.375 C21.381875 2.58125 20.70125 2.7875 20 3 C19.67 3.66 19.34 4.32 19 5 C17.35 5 15.7 5 14 5 C13.67 4.34 13.34 3.68 13 3 C9.95418731 2.53045739 9.95418731 2.53045739 6.4375 2.375 C5.23996094 2.30023438 4.04242188 2.22546875 2.80859375 2.1484375 C1.88175781 2.09945312 0.95492187 2.05046875 0 2 C0 1.34 0 0.68 0 0 Z " fill="#F96E43" transform="translate(59,55)"/>
<path d="M0 0 C1.18916016 0.02707031 1.18916016 0.02707031 2.40234375 0.0546875 C4.35208348 0.10166918 6.30119878 0.17340956 8.25 0.25 C8.25 1.9 8.25 3.55 8.25 5.25 C6.6 5.25 4.95 5.25 3.25 5.25 C3.25 4.26 3.25 3.27 3.25 2.25 C-3.185 2.745 -3.185 2.745 -9.75 3.25 C-10.41 4.9 -11.07 6.55 -11.75 8.25 C-12.5 6.5 -12.5 6.5 -12.75 4.25 C-9.36202473 -0.75831126 -5.4908004 -0.23675093 0 0 Z " fill="#DF785C" transform="translate(46.75,52.75)"/>
<path d="M0 0 C4.29 0 8.58 0 13 0 C13 1.32 13 2.64 13 4 C8.38 4 3.76 4 -1 4 C-0.67 2.68 -0.34 1.36 0 0 Z " fill="#F4822E" transform="translate(94,75)"/>
<path d="M0 0 C2.5 0.125 2.5 0.125 3.5 1.125 C3.54080783 3.12458364 3.54254356 5.12545254 3.5 7.125 C1.19 7.125 -1.12 7.125 -3.5 7.125 C-3.54254356 5.12545254 -3.54080783 3.12458364 -3.5 1.125 C-2.5 0.125 -2.5 0.125 0 0 Z " fill="#DF9561" transform="translate(114.5,72.875)"/>
<path d="M0 0 C4.29 0 8.58 0 13 0 C13 0.99 13 1.98 13 3 C12.08476563 3.06058594 11.16953125 3.12117188 10.2265625 3.18359375 C9.03804687 3.26738281 7.84953125 3.35117187 6.625 3.4375 C5.44164062 3.51871094 4.25828125 3.59992187 3.0390625 3.68359375 C0.08481099 3.81084936 0.08481099 3.81084936 -2 5 C-1.34 3.35 -0.68 1.7 0 0 Z " fill="#F76E42" transform="translate(37,55)"/>
<path d="M0 0 C0.33 0 0.66 0 1 0 C1 4.95 1 9.9 1 15 C0.01 15 -0.98 15 -2 15 C-2.05429959 13.25034642 -2.09292823 11.50020213 -2.125 9.75 C-2.15980469 8.28820312 -2.15980469 8.28820312 -2.1953125 6.796875 C-1.99862781 3.9803502 -1.44568916 2.39050964 0 0 Z " fill="#F26F47" transform="translate(128,49)"/>
<path d="M0 0 C0.66 0.33 1.32 0.66 2 1 C2 5.29 2 9.58 2 14 C1.01 13.67 0.02 13.34 -1 13 C-1.02686553 11.02090602 -1.04633375 9.04171029 -1.0625 7.0625 C-1.07410156 5.96035156 -1.08570313 4.85820313 -1.09765625 3.72265625 C-1 1 -1 1 0 0 Z " fill="#F2783C" transform="translate(14,59)"/>
<path d="M0 0 C0.66 0 1.32 0 2 0 C2 2.97 2 5.94 2 9 C0.68 9 -0.64 9 -2 9 C-2.125 5.625 -2.125 5.625 -2 2 C-1.34 1.34 -0.68 0.68 0 0 Z " fill="#F18231" transform="translate(75,70)"/>
<path d="M0 0 C1.2065625 0.0309375 1.2065625 0.0309375 2.4375 0.0625 C2.4375 1.7125 2.4375 3.3625 2.4375 5.0625 C0.7875 5.3925 -0.8625 5.7225 -2.5625 6.0625 C-2.94468767 4.40635343 -3.27645102 2.73792976 -3.5625 1.0625 C-2.5625 0.0625 -2.5625 0.0625 0 0 Z " fill="#DB7D5D" transform="translate(26.5625,52.9375)"/>
<path d="M0 0 C1.65 0 3.3 0 5 0 C5 0.66 5 1.32 5 2 C6.65 2 8.3 2 10 2 C10 2.33 10 2.66 10 3 C6.7 3 3.4 3 0 3 C0 5.31 0 7.62 0 10 C-0.33 10 -0.66 10 -1 10 C-1.125 2.25 -1.125 2.25 0 0 Z " fill="#BB5640" transform="translate(17,44)"/>
<path d="M0 0 C2 2 2 2 2.1953125 4.3828125 C2.17210938 5.28773437 2.14890625 6.19265625 2.125 7.125 C2.10695313 8.03507812 2.08890625 8.94515625 2.0703125 9.8828125 C2.03550781 10.93082031 2.03550781 10.93082031 2 12 C1.01 12.495 1.01 12.495 0 13 C-0.19466332 11.20909747 -0.38051213 9.41723495 -0.5625 7.625 C-0.66691406 6.62726562 -0.77132812 5.62953125 -0.87890625 4.6015625 C-1 2 -1 2 0 0 Z " fill="#E0805A" transform="translate(117,55)"/>
<path d="M0 0 C0.99 0 1.98 0 3 0 C3 1.65 3 3.3 3 5 C1.35 5 -0.3 5 -2 5 C-1.125 1.125 -1.125 1.125 0 0 Z " fill="#EB744E" transform="translate(52,53)"/>
<path d="M0 0 C1.32 0.33 2.64 0.66 4 1 C4.33 2.32 4.66 3.64 5 5 C3.35 5 1.7 5 0 5 C0 3.35 0 1.7 0 0 Z " fill="#EA8031" transform="translate(112,74)"/>
<path d="M0 0 C1.32 0 2.64 0 4 0 C3.67 1.65 3.34 3.3 3 5 C2.01 5 1.02 5 0 5 C0 3.35 0 1.7 0 0 Z " fill="#F77835" transform="translate(61,63)"/>
<path d="M0 0 C0.33 0 0.66 0 1 0 C1.49230769 6.4 1.49230769 6.4 -1 9.4375 C-1.99 10.2109375 -1.99 10.2109375 -3 11 C-3 9.35 -3 7.7 -3 6 C-2.01 6 -1.02 6 0 6 C0 4.02 0 2.04 0 0 Z " fill="#F27A2F" transform="translate(38,64)"/>
</svg>
